# xmcd
#
# Track frame offsets: 
#        150
#        28527
#        56372
#        83620
#        112150
#        149627
#        176825
#        213872
#        225955
#        244130
#
# Disc length: 3588 seconds
#
# Revision: 5
# Processed by: cddbd v1.5.2PL0 Copyright (c) Steve Scherf et al.
# Submitted via: ExactAudioCopyFreeDBPlugin 1.0
#
DISCID=820e020a
DTITLE=Nadeem-Shravan - Raja Hindustani
DYEAR=1998
DGENRE=Soundtrack
TTITLE0=Udit Narayan, Alka Yagnik and Sapna Awarsthi - Pardesi Pardesi
TTITLE1=Kumar Sanu, Alka Yagnik - Poochho Zara Poochho
TTITLE2=Alka Yagnik - Aaye Ho Meri Zindagi Mein
TTITLE3=Udit Narayan, Alka Yagnik - Kitana Pyaara Tujhe Rab Ne Banaya
TTITLE4=Kumar Sanu, Alka Yagnik - Pardesi Pardesi
TTITLE5=Udit Narayan - Aaye Ho Meri Zindagi Mein
TTITLE6=Kumar Sanu, Alisha Chinoy and Sapna Mukherjee - Tere Ishq Mein N
TTITLE6=achenge
TTITLE7=Suresh Wadkar and Bela - Pardesi Jana Nahin
TTITLE8=Udit Narayan and Poornima - Doob Ke Dariya Mein (Saajan Chale Sa
TTITLE8=sural)
TTITLE9=S. P. Balasubramanium and Swarnalata - Maya Machindra (Hindustan
TTITLE9=i)
EXTD=
EXTT0=
EXTT1=
EXTT2=
EXTT3=
EXTT4=
EXTT5=
EXTT6=
EXTT7=
EXTT8=
EXTT9=
PLAYORDER=
